<svg width="24" height="24" viewBox="0 0 24 24" fill="none" xmlns="http://www.w3.org/2000/svg">
<path fill-rule="evenodd" clip-rule="evenodd" d="M12 22C17.5228 22 22 17.5228 22 12C22 6.47715 17.5228 2 12 2C6.47715 2 2 6.47715 2 12C2 17.5228 6.47715 22 12 22ZM15.6241 9.41611C15.8539 9.07146 15.7608 8.60581 15.4161 8.37604C15.0715 8.14628 14.6058 8.23941 14.376 8.58405L11.0001 13.648L9.62412 11.5841C9.39435 11.2394 8.9287 11.1463 8.58405 11.376C8.23941 11.6058 8.14628 12.0715 8.37604 12.4161L9.96002 14.7921C10.4548 15.5342 11.5454 15.5342 12.0401 14.7921L15.6241 9.41611Z" fill="#fff"/>
</svg>
