<svg width="8" height="9" viewBox="0 0 8 9" fill="none" xmlns="http://www.w3.org/2000/svg">
<path d="M5.504 0.623999C5.984 0.799999 6.384 1.064 6.704 1.416C7.04 1.768 7.296 2.168 7.472 2.616C7.648 3.048 7.744 3.496 7.76 3.96C7.792 4.424 7.744 4.856 7.616 5.256C7.44 5.704 7.216 6.144 6.944 6.576C6.672 7.008 6.36 7.392 6.008 7.728C5.656 8.064 5.256 8.336 4.808 8.544C4.36 8.752 3.864 8.856 3.32 8.856C2.664 8.856 2.112 8.704 1.664 8.4C1.216 8.096 0.864 7.704 0.608 7.224C0.352 6.744 0.184 6.2 0.104 5.592C0.0400001 4.984 0.0560001 4.376 0.152 3.768C0.216 3.32 0.32 2.888 0.464 2.472C0.624 2.04 0.824 1.664 1.064 1.344C1.304 1.008 1.576 0.735999 1.88 0.528C2.2 0.319999 2.56 0.215999 2.96 0.215999C3.184 0.215999 3.464 0.263999 3.8 0.36C4.136 0.44 4.448 0.559999 4.736 0.719999C4.944 0.527999 5.2 0.495999 5.504 0.623999ZM4.592 2.376C4.416 2.264 4.208 2.12 3.968 1.944C3.744 1.752 3.544 1.656 3.368 1.656C3.176 1.656 2.984 1.744 2.792 1.92C2.616 2.096 2.456 2.304 2.312 2.544C2.184 2.768 2.072 3 1.976 3.24C1.88 3.48 1.816 3.672 1.784 3.816C1.736 4.056 1.704 4.344 1.688 4.68C1.672 5.016 1.696 5.352 1.76 5.688C1.824 6.008 1.944 6.304 2.12 6.576C2.312 6.832 2.592 7.016 2.96 7.128C3.184 7.192 3.448 7.192 3.752 7.128C4.056 7.048 4.352 6.912 4.64 6.72C4.944 6.528 5.224 6.272 5.48 5.952C5.752 5.632 5.96 5.264 6.104 4.848C6.264 4.384 6.264 3.904 6.104 3.408C5.96 2.896 5.656 2.528 5.192 2.304C5.08 2.384 4.968 2.424 4.856 2.424C4.744 2.424 4.656 2.408 4.592 2.376Z" fill="#fff"/>
</svg>
