<svg width="24" height="24" viewBox="0 0 24 24" fill="none" xmlns="http://www.w3.org/2000/svg">
<path fill-rule="evenodd" clip-rule="evenodd" d="M20.0313 5.03033C20.3242 4.73744 20.3242 4.26256 20.0313 3.96967C19.7384 3.67678 19.2635 3.67678 18.9706 3.96967L16.4647 6.47555C15.1192 5.55708 13.5922 5.04761 12.0009 5.04761C9.03538 5.04761 6.35427 6.79621 4.53585 9.65457C4.10316 10.3327 3.91211 11.1911 3.91211 12.0039C3.91211 12.8166 4.10315 13.6749 4.53582 14.3531C5.07231 15.1952 5.68777 15.9446 6.3601 16.5792L3.96967 18.9696C3.67678 19.2625 3.67678 19.7374 3.96967 20.0303C4.26256 20.3232 4.73744 20.3232 5.03033 20.0303L10.6328 14.4278C10.6387 14.4219 10.6444 14.416 10.65 14.41L14.3991 10.6609C14.4092 10.6519 14.4191 10.6425 14.4288 10.6328L20.0313 5.03033ZM13.84 9.10032L15.3815 7.55876C14.3251 6.89513 13.1734 6.54761 12.0009 6.54761C9.67151 6.54761 7.41775 7.91881 5.80118 10.4602L5.80055 10.4611C5.55847 10.8404 5.41211 11.3994 5.41211 12.0039C5.41211 12.6084 5.55847 13.1673 5.80055 13.5466C6.28395 14.3053 6.83305 14.9682 7.42127 15.518L9.09945 13.8398C8.76087 13.3086 8.56445 12.6783 8.56445 11.9999C8.56445 10.1007 10.1002 8.56494 11.9995 8.56494C12.6781 8.56494 13.3085 8.76151 13.84 9.10032ZM10.0645 11.9999C10.0645 10.9292 10.9287 10.0649 11.9995 10.0649C12.259 10.0649 12.5055 10.1155 12.7308 10.2079L10.2074 12.7313C10.115 12.506 10.0645 12.2595 10.0645 11.9999Z" fill="#fff"/>
<path d="M17.5671 8.36313C17.8898 8.10351 18.3619 8.15471 18.6216 8.47747C18.9129 8.83974 19.2001 9.23009 19.4654 9.64817C19.8976 10.3261 20.0884 11.184 20.0884 11.9963C20.0884 12.8091 19.8973 13.6674 19.4647 14.3456C17.6462 17.2039 14.9651 18.9525 11.9996 18.9525C10.9706 18.9525 9.96447 18.7349 9.0236 18.3388C8.64185 18.178 8.46268 17.7382 8.62342 17.3565C8.78416 16.9747 9.22394 16.7956 9.60569 16.9563C10.3748 17.2802 11.1837 17.4525 11.9996 17.4525C14.329 17.4525 16.5828 16.0813 18.1993 13.54L18.2 13.539C18.442 13.1597 18.5884 12.6008 18.5884 11.9963C18.5884 11.3918 18.442 10.8328 18.2 10.4536L18.1989 10.4519C17.9692 10.09 17.7163 9.74534 17.4527 9.41761C17.1931 9.09484 17.2443 8.62274 17.5671 8.36313Z" fill="#fff"/>
<path d="M15.3703 12.661C15.4454 12.2537 15.1761 11.8626 14.7687 11.7875C14.3614 11.7124 13.9703 11.9817 13.8951 12.389C13.7565 13.1407 13.1334 13.7639 12.3817 13.9025C11.9744 13.9776 11.705 14.3687 11.7801 14.776C11.8553 15.1834 12.2464 15.4527 12.6537 15.3776C14.0171 15.1262 15.1189 14.0244 15.3703 12.661Z" fill="#fff"/>
</svg>
