<svg width="24" height="24" viewBox="0 0 24 24" fill="none" xmlns="http://www.w3.org/2000/svg">
<rect opacity="0.1" x="2" y="2" width="20" height="20" rx="6" fill="#fff"/>
<path opacity="0.6" d="M10.3635 9.23582C10.0586 8.92842 9.55631 8.92052 9.2415 9.21817C8.92669 9.51583 8.9186 10.0063 9.22343 10.3137L10.8956 12L9.22343 13.6863C8.9186 13.9937 8.92669 14.4842 9.2415 14.7818C9.55631 15.0795 10.0586 15.0716 10.3635 14.7642L12.0001 13.1138L13.6365 14.764C13.9414 15.0714 14.4437 15.0793 14.7585 14.7817C15.0733 14.484 15.0814 13.9935 14.7766 13.6861L13.1045 12L14.7766 10.3139C15.0814 10.0065 15.0733 9.51596 14.7585 9.21831C14.4437 8.92065 13.9414 8.92855 13.6365 9.23595L12.0001 10.8862L10.3635 9.23582Z" fill="#fff"/>
</svg>
