<svg width="16" height="16" viewBox="0 0 16 16" fill="none" xmlns="http://www.w3.org/2000/svg">
<path fill-rule="evenodd" clip-rule="evenodd" d="M8 16C12.4183 16 16 12.4183 16 8C16 3.58172 12.4183 0 8 0C3.58172 0 0 3.58172 0 8C0 12.4183 3.58172 16 8 16ZM7.20078 4.8C7.20078 4.35817 7.55895 4 8.00078 4C8.44261 4 8.80078 4.35817 8.80078 4.8V8C8.80078 8.44183 8.44261 8.8 8.00078 8.8C7.55895 8.8 7.20078 8.44183 7.20078 8V4.8ZM8.80078 11.2C8.80078 11.6418 8.44261 12 8.00078 12C7.55895 12 7.20078 11.6418 7.20078 11.2C7.20078 10.7582 7.55895 10.4 8.00078 10.4C8.44261 10.4 8.80078 10.7582 8.80078 11.2Z" fill="#C13415"/>
</svg>
