<svg width="14" height="14" viewBox="0 0 14 14" fill="none" xmlns="http://www.w3.org/2000/svg">
<path d="M8.75 2C8.75 1.0335 9.5335 0.25 10.5 0.25H13C13.4142 0.25 13.75 0.585786 13.75 1C13.75 1.41421 13.4142 1.75 13 1.75H11.243C12.7713 2.98674 13.75 4.87871 13.75 6.99992C13.75 9.49932 12.3912 11.6805 10.3755 12.8464C10.017 13.0538 9.5582 12.9313 9.3508 12.5728C9.14339 12.2142 9.26591 11.7554 9.62446 11.548C11.1956 10.6391 12.25 8.94222 12.25 6.99992C12.25 5.32841 11.4691 3.83862 10.25 2.87643V4.5C10.25 4.91421 9.91421 5.25 9.5 5.25C9.08579 5.25 8.75 4.91421 8.75 4.5V2Z" fill="#2C3210"/>
<path d="M4.5 8.75C4.91421 8.75 5.25 9.08579 5.25 9.5V12C5.25 12.9665 4.4665 13.75 3.5 13.75H1C0.585786 13.75 0.25 13.4142 0.25 13C0.25 12.5858 0.585786 12.25 1 12.25H2.75723C1.22881 11.0133 0.25 9.12122 0.25 6.99992C0.25 4.50052 1.60883 2.31939 3.62446 1.15341C3.983 0.946003 4.4418 1.06852 4.6492 1.42707C4.85661 1.78562 4.73409 2.24441 4.37554 2.45182C2.80436 3.3607 1.75 5.05762 1.75 6.99992C1.75 8.67144 2.53087 10.1612 3.75 11.1234V9.5C3.75 9.08579 4.08579 8.75 4.5 8.75Z" fill="#2C3210"/>
</svg>
