<svg width="17" height="17" viewBox="0 0 17 17" fill="none" xmlns="http://www.w3.org/2000/svg">
<path fill-rule="evenodd" clip-rule="evenodd" d="M7.5 0.25C3.49594 0.25 0.25 3.49594 0.25 7.5C0.25 11.5041 3.49594 14.75 7.5 14.75C9.23189 14.75 10.8219 14.1427 12.0689 13.1295L14.9697 16.0303C15.2626 16.3232 15.7374 16.3232 16.0303 16.0303C16.3232 15.7374 16.3232 15.2626 16.0303 14.9697L13.1295 12.0689C14.1427 10.8219 14.75 9.23189 14.75 7.5C14.75 3.49594 11.5041 0.25 7.5 0.25ZM1.75 7.5C1.75 4.32436 4.32436 1.75 7.5 1.75C10.6756 1.75 13.25 4.32436 13.25 7.5C13.25 10.6756 10.6756 13.25 7.5 13.25C4.32436 13.25 1.75 10.6756 1.75 7.5Z" fill="#fff"/>
</svg>
